G75*
%MOIN*%
%OFA0B0*%
%FSLAX24Y24*%
%IPPOS*%
%LPD*%
%AMOC8*
5,1,8,0,0,1.08239X$1,22.5*
%
%ADD10C,0.0080*%
%ADD11C,0.0030*%
%ADD12C,0.0020*%
%ADD13C,0.0060*%
%ADD14C,0.0040*%
D10*
X001340Y000297D02*
X001340Y004864D01*
X001655Y004864D01*
X001655Y000297D01*
X001340Y000297D01*
X001655Y000297D02*
X004096Y000297D01*
X004096Y004864D01*
X001655Y004864D01*
X004840Y004578D02*
X005360Y004578D01*
X005360Y003458D01*
X004840Y003458D01*
X004840Y004578D01*
X007698Y004035D02*
X012698Y004035D01*
X012698Y001035D01*
X007698Y001035D01*
X007698Y004035D01*
X007383Y003483D02*
X007206Y003483D01*
X007383Y003483D02*
X007383Y001671D01*
X007206Y001671D01*
X006419Y001671D02*
X006242Y001671D01*
X006242Y003483D01*
X006419Y003483D01*
X004903Y002601D02*
X004903Y002364D01*
X004431Y002364D02*
X004431Y002601D01*
X005525Y002191D02*
X005706Y002191D01*
X005798Y002069D01*
X005696Y002185D02*
X005620Y002069D01*
X005706Y002191D02*
X005887Y002191D01*
X006419Y002183D02*
X007206Y002183D01*
X004903Y001175D02*
X004903Y000939D01*
X004431Y000939D02*
X004431Y001175D01*
X013080Y000416D02*
X015639Y000416D01*
X015639Y004825D01*
X016033Y004825D01*
X016033Y000416D01*
X015639Y000416D01*
X013080Y000416D02*
X013080Y004825D01*
X015639Y004825D01*
D11*
X006925Y002839D02*
X006925Y002734D01*
X006890Y002699D01*
X006750Y002699D01*
X006715Y002734D01*
X006715Y002839D01*
X006925Y002839D01*
X006855Y002618D02*
X006925Y002548D01*
X006715Y002548D01*
X006715Y002618D02*
X006715Y002478D01*
X004995Y003818D02*
X004995Y003958D01*
X004995Y004039D02*
X005065Y004109D01*
X005030Y004039D02*
X004995Y004074D01*
X004995Y004144D01*
X005030Y004179D01*
X005170Y004179D01*
X005205Y004144D01*
X005205Y004074D01*
X005170Y004039D01*
X005030Y004039D01*
X005135Y003958D02*
X005205Y003888D01*
X004995Y003888D01*
D12*
X005010Y002944D02*
X005150Y002944D01*
X005150Y002874D01*
X005127Y002851D01*
X005080Y002851D01*
X005057Y002874D01*
X005057Y002944D01*
X005057Y002897D02*
X005010Y002851D01*
X005010Y002797D02*
X005010Y002703D01*
X005010Y002750D02*
X005150Y002750D01*
X005103Y002797D01*
X005080Y002444D02*
X005080Y002374D01*
X005057Y002351D01*
X005033Y002351D01*
X005010Y002374D01*
X005010Y002421D01*
X005033Y002444D01*
X005080Y002444D01*
X005127Y002397D01*
X005150Y002351D01*
X005033Y002297D02*
X005010Y002297D01*
X005010Y002273D01*
X005033Y002273D01*
X005033Y002297D01*
X005033Y002223D02*
X005010Y002200D01*
X005010Y002153D01*
X005033Y002130D01*
X005057Y002130D01*
X005080Y002153D01*
X005080Y002200D01*
X005103Y002223D01*
X005127Y002223D01*
X005150Y002200D01*
X005150Y002153D01*
X005127Y002130D01*
X005103Y002130D01*
X005080Y002153D01*
X005080Y002200D02*
X005057Y002223D01*
X005033Y002223D01*
X005010Y002076D02*
X005150Y002076D01*
X005103Y002006D02*
X005057Y002076D01*
X005010Y002006D01*
X005960Y002033D02*
X005960Y002127D01*
X006053Y002033D01*
X006077Y002033D01*
X006100Y002057D01*
X006100Y002103D01*
X006077Y002127D01*
X006077Y002181D02*
X005983Y002181D01*
X005960Y002204D01*
X005960Y002274D01*
X006100Y002274D01*
X006100Y002204D01*
X006077Y002181D01*
X005150Y001444D02*
X005010Y001444D01*
X005057Y001444D02*
X005057Y001374D01*
X005080Y001351D01*
X005127Y001351D01*
X005150Y001374D01*
X005150Y001444D01*
X005057Y001397D02*
X005010Y001351D01*
X005010Y001297D02*
X005103Y001203D01*
X005127Y001203D01*
X005150Y001227D01*
X005150Y001273D01*
X005127Y001297D01*
X005010Y001297D02*
X005010Y001203D01*
X005080Y000944D02*
X005080Y000851D01*
X005033Y000797D02*
X005127Y000703D01*
X005033Y000703D01*
X005010Y000727D01*
X005010Y000773D01*
X005033Y000797D01*
X005127Y000797D01*
X005150Y000773D01*
X005150Y000727D01*
X005127Y000703D01*
X005033Y000650D02*
X005010Y000650D01*
X005010Y000626D01*
X005033Y000626D01*
X005033Y000650D01*
X005010Y000576D02*
X005103Y000482D01*
X005127Y000482D01*
X005150Y000506D01*
X005150Y000553D01*
X005127Y000576D01*
X005010Y000576D02*
X005010Y000482D01*
X005010Y000874D02*
X005150Y000874D01*
X005080Y000944D01*
D13*
X000330Y000630D02*
X000330Y000410D01*
X000624Y000410D02*
X000624Y000630D01*
X000550Y000703D01*
X000403Y000703D01*
X000330Y000630D01*
X000330Y000870D02*
X000330Y001090D01*
X000403Y001164D01*
X000550Y001164D01*
X000624Y001090D01*
X000624Y000870D01*
X000477Y001331D02*
X000770Y001331D01*
X000477Y001331D02*
X000330Y001477D01*
X000477Y001624D01*
X000770Y001624D01*
X000630Y001910D02*
X000630Y002203D01*
X001070Y002203D01*
X001070Y002370D02*
X001070Y002664D01*
X001070Y002517D02*
X000630Y002517D01*
X000703Y002831D02*
X000630Y002904D01*
X000630Y003051D01*
X000703Y003124D01*
X000997Y003124D01*
X001070Y003051D01*
X001070Y002904D01*
X000997Y002831D01*
X000697Y003510D02*
X000403Y003510D01*
X000330Y003583D01*
X000330Y003803D01*
X000770Y003803D01*
X000770Y003583D01*
X000697Y003510D01*
X000770Y003970D02*
X000330Y003970D01*
X000770Y004264D01*
X000330Y004264D01*
X000403Y004431D02*
X000550Y004431D01*
X000550Y004577D01*
X000403Y004431D02*
X000330Y004504D01*
X000330Y004651D01*
X000403Y004724D01*
X000697Y004724D01*
X000770Y004651D01*
X000770Y004504D01*
X000697Y004431D01*
D14*
X007912Y004414D02*
X007912Y004694D01*
X008005Y004601D01*
X008099Y004694D01*
X008099Y004414D01*
X008207Y004414D02*
X008300Y004414D01*
X008253Y004414D02*
X008253Y004601D01*
X008207Y004601D01*
X008403Y004554D02*
X008403Y004461D01*
X008450Y004414D01*
X008590Y004414D01*
X008698Y004414D02*
X008698Y004601D01*
X008791Y004601D02*
X008838Y004601D01*
X008791Y004601D02*
X008698Y004508D01*
X008590Y004601D02*
X008450Y004601D01*
X008403Y004554D01*
X008253Y004694D02*
X008253Y004741D01*
X008943Y004554D02*
X008943Y004461D01*
X008990Y004414D01*
X009083Y004414D01*
X009130Y004461D01*
X009130Y004554D01*
X009083Y004601D01*
X008990Y004601D01*
X008943Y004554D01*
X009532Y004508D02*
X009673Y004508D01*
X009719Y004554D01*
X009719Y004648D01*
X009673Y004694D01*
X009532Y004694D01*
X009532Y004414D01*
X009626Y004508D02*
X009719Y004414D01*
X009827Y004461D02*
X009827Y004554D01*
X009874Y004601D01*
X009967Y004601D01*
X010014Y004554D01*
X010014Y004508D01*
X009827Y004508D01*
X009827Y004461D02*
X009874Y004414D01*
X009967Y004414D01*
X010122Y004414D02*
X010215Y004414D01*
X010168Y004414D02*
X010168Y004694D01*
X010122Y004694D01*
X010365Y004601D02*
X010458Y004601D01*
X010505Y004554D01*
X010505Y004414D01*
X010365Y004414D01*
X010318Y004461D01*
X010365Y004508D01*
X010505Y004508D01*
X010613Y004461D02*
X010660Y004414D01*
X010800Y004414D01*
X010800Y004367D02*
X010753Y004321D01*
X010706Y004321D01*
X010800Y004367D02*
X010800Y004601D01*
X010613Y004601D02*
X010613Y004461D01*
X011202Y004414D02*
X011342Y004414D01*
X011389Y004461D01*
X011389Y004508D01*
X011342Y004554D01*
X011202Y004554D01*
X011342Y004554D02*
X011389Y004601D01*
X011389Y004648D01*
X011342Y004694D01*
X011202Y004694D01*
X011202Y004414D01*
X011497Y004414D02*
X011590Y004414D01*
X011544Y004414D02*
X011544Y004694D01*
X011497Y004694D01*
X011693Y004554D02*
X011740Y004601D01*
X011833Y004601D01*
X011880Y004554D01*
X011880Y004461D01*
X011833Y004414D01*
X011740Y004414D01*
X011693Y004461D01*
X011693Y004554D01*
X011988Y004554D02*
X011988Y004461D01*
X012035Y004414D01*
X012175Y004414D01*
X012283Y004414D02*
X012283Y004694D01*
X012175Y004601D02*
X012035Y004601D01*
X011988Y004554D01*
X012283Y004508D02*
X012423Y004601D01*
X012283Y004508D02*
X012423Y004414D01*
X011887Y000794D02*
X011980Y000701D01*
X011980Y000514D01*
X011793Y000514D02*
X011793Y000701D01*
X011887Y000794D01*
X011592Y000794D02*
X011499Y000701D01*
X011793Y000654D02*
X011980Y000654D01*
X011685Y000514D02*
X011499Y000514D01*
X011592Y000514D02*
X011592Y000794D01*
X011096Y000748D02*
X011049Y000794D01*
X010956Y000794D01*
X010909Y000748D01*
X010909Y000561D01*
X010956Y000514D01*
X011049Y000514D01*
X011096Y000561D01*
X010801Y000561D02*
X010755Y000514D01*
X010615Y000514D01*
X010615Y000794D01*
X010755Y000794D01*
X010801Y000748D01*
X010801Y000561D01*
X010507Y000608D02*
X010413Y000514D01*
X010320Y000608D01*
X010320Y000794D01*
X010212Y000748D02*
X010025Y000561D01*
X010072Y000514D01*
X010165Y000514D01*
X010212Y000561D01*
X010212Y000748D01*
X010165Y000794D01*
X010072Y000794D01*
X010025Y000748D01*
X010025Y000561D01*
X009918Y000561D02*
X009918Y000608D01*
X009871Y000654D01*
X009731Y000654D01*
X009731Y000561D01*
X009777Y000514D01*
X009871Y000514D01*
X009918Y000561D01*
X009731Y000654D02*
X009824Y000748D01*
X009918Y000794D01*
X010507Y000794D02*
X010507Y000608D01*
X009328Y000514D02*
X009141Y000794D01*
X009034Y000701D02*
X008940Y000794D01*
X008847Y000701D01*
X008847Y000514D01*
X008739Y000514D02*
X008739Y000794D01*
X008646Y000701D01*
X008552Y000794D01*
X008552Y000514D01*
X008847Y000654D02*
X009034Y000654D01*
X009034Y000701D02*
X009034Y000514D01*
X009141Y000514D02*
X009328Y000794D01*
M02*
