G75*
%MOIN*%
%OFA0B0*%
%FSLAX24Y24*%
%IPPOS*%
%LPD*%
%AMOC8*
5,1,8,0,0,1.08239X$1,22.5*
%
%ADD10R,0.0579X0.0697*%
%ADD11R,0.0800X0.0800*%
%ADD12C,0.0800*%
%ADD13R,0.0950X0.0950*%
%ADD14C,0.0950*%
%ADD15C,0.0118*%
%ADD16R,0.0551X0.0394*%
%ADD17R,0.0472X0.0315*%
%ADD18C,0.0600*%
%ADD19C,0.0240*%
%ADD20C,0.0376*%
D10*
X006813Y001632D03*
X006813Y003522D03*
D11*
X014734Y001636D03*
D12*
X014734Y003605D03*
D13*
X002757Y003959D03*
D14*
X002757Y002581D03*
X002757Y001203D03*
D15*
X005568Y001641D02*
X005844Y001641D01*
X005568Y001641D02*
X005568Y001917D01*
X005844Y001917D01*
X005844Y001641D01*
X005844Y001758D02*
X005568Y001758D01*
X005568Y001875D02*
X005844Y001875D01*
X005844Y002332D02*
X005568Y002332D01*
X005568Y002608D01*
X005844Y002608D01*
X005844Y002332D01*
X005844Y002449D02*
X005568Y002449D01*
X005568Y002566D02*
X005844Y002566D01*
D16*
X004667Y003644D03*
X005533Y004018D03*
X004667Y004392D03*
D17*
X004667Y002837D03*
X004667Y002128D03*
X004667Y001412D03*
X004667Y000703D03*
D18*
X008198Y001535D03*
X009198Y001535D03*
X012198Y001535D03*
X012198Y003535D03*
X009198Y003535D03*
X008198Y003535D03*
D19*
X003257Y000703D02*
X002757Y001203D01*
X003257Y000703D02*
X004667Y000703D01*
X005883Y000703D01*
X006813Y001632D01*
X007591Y000854D01*
X008517Y000854D01*
X009198Y001535D01*
X005706Y001779D02*
X005339Y001412D01*
X004667Y001412D01*
X004667Y002128D02*
X004641Y002154D01*
X003800Y002154D01*
X003373Y002581D01*
X002757Y002581D01*
X003900Y002954D02*
X004017Y002837D01*
X004667Y002837D01*
X005706Y002860D02*
X005706Y002470D01*
X005706Y002860D02*
X006368Y003522D01*
X006813Y003522D01*
X007545Y004254D01*
X008479Y004254D01*
X009198Y003535D01*
X006813Y003522D02*
X006317Y004018D01*
X005533Y004018D01*
X004667Y004392D02*
X004605Y004454D01*
X003900Y004454D01*
X003072Y003644D02*
X002757Y003959D01*
X003072Y003644D02*
X004667Y003644D01*
D20*
X003900Y002954D03*
X003900Y004454D03*
M02*
